<svg xmlns="http://www.w3.org/2000/svg" viewBox="0 0 32 32" fill="none"><circle cx="16" cy="16" r="16" fill="#2775CA"/><path d="M16 6C10.5 6 6 10.5 6 16s4.5 10 10 10 10-4.5 10-10S21.5 6 16 6zm1.1 17.1v1.3h-2.2v-1.3c-2.1-.3-3.5-1.5-3.7-3.2h1.9c.2 1 1 1.6 2.4 1.6 1.5 0 2.3-.7 2.3-1.6 0-.8-.5-1.3-1.8-1.6l-1.4-.3c-2-.4-3-1.5-3-3.1 0-1.7 1.3-2.9 3.3-3.2V10.4h2.2v1.3c1.9.3 3.2 1.5 3.3 3.1h-1.8c-.2-1-.9-1.6-2.1-1.6-1.3 0-2.1.6-2.1 1.5 0 .8.5 1.2 1.7 1.5l1.3.3c2.1.5 3.2 1.5 3.2 3.2 0 1.8-1.4 3-3.5 3.4z" fill="#fff"/></svg>